<?xml version="1.0" encoding="UTF-8" standalone="no"?>
<svg
   version="1.0"
   width="800px"
   height="800px"
   viewBox="0 0 800 800"
   preserveAspectRatio="xMidYMid meet"
   id="svg2"
   xmlns="http://www.w3.org/2000/svg"
   xmlns:svg="http://www.w3.org/2000/svg">
  <defs
     id="defs2" />
  <g
     fill="#005395"
     id="g2"
     style="fill:#005395;fill-opacity:1">
    <path
       id="path1"
       style="fill:#005395;stroke-width:1.05405;fill-opacity:1"
       d="m 390.91992,32.208984 c -11.40046,0.130229 -22.82864,0.521587 -34.12459,2.170963 -30.68656,3.942028 -60.99973,11.285771 -89.80024,22.654852 -40.7939,15.969945 -78.6973,39.28284 -111.33803,68.502641 -35.07396,31.34788 -64.148685,69.40996 -85.003759,111.58382 -16.952665,34.17637 -28.59101,71.00446 -34.113624,108.76181 -3.935443,26.66308 -4.86377,53.75455 -2.972542,80.6365 1.725242,25.49399 5.941306,50.8482 13.088298,75.39348 7.523833,26.08332 18.286976,51.16054 31.10526,75.06357 7.018455,13.086 14.837687,25.74599 23.519727,37.79534 8.97043,12.50696 18.87465,24.32839 29.4248,35.52916 10.37359,11.01752 21.27257,21.54578 32.70703,31.45915 15.46258,13.2449 32.16133,24.99526 49.47674,35.67721 2.45466,1.51597 5.24415,2.91121 8.21624,2.58645 2.34232,-0.20871 4.21047,-1.935 5.59528,-3.70949 1.78682,-2.47445 3.20894,-5.18825 4.84151,-7.76422 8.73888,-14.49662 17.1391,-29.19467 25.55294,-43.88143 2.61091,-4.60102 5.23931,-9.20115 7.59043,-13.93998 1.16604,-2.78916 0.65977,-6.20853 -1.39453,-8.45552 -1.84275,-2.15762 -4.334,-3.5983 -6.58591,-5.27635 -7.66506,-5.34196 -15.59818,-10.30818 -22.9914,-16.0323 -11.62507,-8.78281 -22.39887,-18.65026 -32.48007,-29.15896 -12.00422,-12.48661 -23.12534,-25.8906 -32.43035,-40.52364 -8.00551,-12.50173 -14.9237,-25.68188 -21.01068,-39.2152 -3.72466,-8.40265 -7.02492,-17.0251 -9.87206,-25.71494 -3.14484,-9.61373 -5.74364,-19.33599 -7.88089,-29.20218 -1.29272,-5.95661 -2.40484,-11.94014 -3.35663,-18.00283 -1.00978,-6.28447 -1.23229,-12.78058 -1.45435,-19.05314 -0.35074,-12.92143 -0.30014,-25.89742 0.15311,-38.77857 0.25408,-5.89218 0.49928,-11.73985 1.10822,-17.62074 1.03599,-8.67848 2.78813,-17.25448 4.71254,-25.77404 3.66169,-15.73632 8.67736,-31.15813 14.99292,-46.02978 8.03303,-18.92404 18.28625,-37.07777 30.40547,-53.76124 18.03366,-24.85173 40.12777,-46.78307 65.27422,-64.4204 14.89781,-10.458 30.94992,-19.5101 47.67321,-26.8306 3.79284,-1.66097 7.47998,-3.17614 11.365,-4.67714 25.22455,-9.75877 51.88422,-15.78438 78.85046,-17.85358 4.06489,-0.31648 8.28846,-0.53636 12.4216,-0.67522 6.05022,-0.19457 12.24108,-0.19187 18.34311,0.0151 8.05915,0.27213 16.2576,0.90361 24.31984,1.89299 4.26216,0.515 8.72038,1.17147 12.95487,1.89689 8.36218,1.42204 16.71223,3.24875 24.85319,5.41982 21.25383,5.6523 41.80189,13.90275 61.12783,24.39233 6.65453,3.57824 13.22895,7.32164 19.49549,11.55039 3.26891,2.1717 6.45361,4.41004 9.59598,6.68423 2.02423,1.46466 4.22117,3.09742 6.1845,4.61167 13.10536,10.03911 25.34188,21.2143 36.50242,33.37972 1.16511,1.28387 2.48073,2.72283 3.67551,4.09226 4.08681,4.63447 8.04216,9.45802 11.76457,14.31029 8.31453,10.84095 15.85964,22.37169 22.42906,34.29472 3.33533,6.04482 6.47876,12.31671 9.32031,18.53516 1.87602,4.12143 3.63806,8.23373 5.32363,12.46613 3.71122,9.33281 6.9531,19.01326 9.6537,28.74681 3.83197,13.81706 6.64926,28.11791 8.37649,42.43284 0.92901,8.13091 1.07131,16.24927 1.21476,24.41043 0.1029,8.52171 -0.0307,17.09397 -0.36652,25.55622 -0.20966,5.61721 -0.52899,11.19488 -1.08096,16.75671 -0.21435,2.24416 -0.56037,4.66313 -0.92164,6.96102 -1.12288,7.06294 -2.64754,14.15581 -4.27563,21.0546 -7.54974,31.21426 -20.06185,61.28867 -37.45703,88.3125 -0.98703,1.51209 -2.08792,3.20317 -3.14632,4.76515 -7.51729,11.13441 -15.93533,21.66004 -25.1486,31.43798 -1.06593,1.12107 -2.28909,2.40677 -3.43879,3.56838 -12.15281,12.42189 -25.23324,23.95251 -39.20192,34.29536 -3.14827,2.32633 -6.37627,4.57449 -9.60554,6.67826 -3.96281,2.64912 -8.12019,4.99909 -12.03305,7.72167 -1.72202,1.13407 -3.00192,2.91145 -3.4082,4.94531 -0.56112,2.45022 0.0514,5.02138 1.27231,7.17606 3.35137,7.08285 7.35529,13.82805 11.17143,20.66469 7.59856,13.36703 15.36285,26.64698 23.63346,39.61158 1.39052,2.03077 2.73846,4.1939 4.72553,5.69611 2.7683,1.91121 6.62601,1.91629 9.46521,0.14827 5.17694,-2.62438 9.91836,-5.99831 14.77473,-9.15486 9.95025,-6.64955 19.75511,-13.53845 29.10715,-21.01225 10.23818,-8.38061 19.85426,-17.4881 29.33846,-26.70382 8.88402,-8.70777 17.55643,-17.66407 25.36454,-27.36122 17.48319,-21.47898 32.67822,-44.84354 44.98793,-69.66049 11.17266,-22.44503 19.99385,-46.04996 26.35211,-70.29997 4.57037,-17.38927 7.96688,-35.0954 10.03338,-52.95749 1.36053,-14.66262 1.5197,-29.40228 1.59844,-44.11809 -0.0113,-10.85771 -0.18228,-21.72659 -1.01373,-32.55568 -0.96663,-10.14226 -2.6321,-20.20307 -4.4331,-30.22591 C 758.1806,304.80842 749.45293,276.08036 737.09556,248.95004 718.24932,207.21477 691.62363,168.98149 658.836,136.99841 625.50317,104.41133 585.90288,78.276174 542.86548,60.374054 c -32.97839,-13.742105 -67.92142,-22.773357 -103.432,-26.705 -15.12723,-1.330129 -30.32712,-1.522295 -45.50449,-1.490023 -1.00302,0.01 -2.00605,0.01997 -3.00907,0.02995 z" />
    <path
       d="m 475.36486,544.61622 c -41.52972,-28.03784 -113.73243,-79.15946 -123.74594,-87.5919 -16.02162,-13.38648 -25.50811,-34.36216 -25.61351,-56.49729 -0.21082,-41.52973 33.62432,-75.36487 75.36486,-75.36487 27.72162,0 54.28378,16.44325 66.51081,41.10811 4.53243,9.17027 5.9027,14.01892 16.54865,59.55405 8.64324,36.9973 32.04324,146.40811 31.09459,145.88109 -0.1054,0 -18.12973,-12.22703 -40.15946,-27.08919 z"
       id="path2"
       style="stroke-width:1.05405;fill:#005395;fill-opacity:1" />
  </g>
</svg>
